<svg width="132" height="132" viewBox="0 0 132 132" fill="none" xmlns="http://www.w3.org/2000/svg">
<path d="M118.479 96.1514V102.751C118.479 104.974 117.677 107.119 116.234 108.81C113.791 111.675 111.107 114.327 108.214 116.737C106.706 117.992 104.417 116.923 104.417 114.961C104.417 107.022 97.9807 100.585 90.0413 100.585H30.0736C15.164 100.585 2.54152 89.5537 0.578274 74.7738C0.196711 71.9033 0 68.9746 0 65.9999C0 29.5939 29.4765 0.0725791 65.8652 0.000133714C102.184 -0.0725695 131.908 29.5117 132 65.83C132.018 72.9325 130.914 79.7748 128.855 86.1892C128.638 86.8634 128.015 87.3231 127.307 87.3231C122.431 87.3231 118.479 91.2756 118.479 96.1514Z" fill="#60C8DD"/>
<path d="M121.21 65.9999C121.21 96.4917 96.4918 121.21 66 121.21C35.5082 121.21 10.7897 96.4917 10.7897 65.9999C10.7897 35.5081 35.5082 10.7896 66 10.7896C96.4918 10.7896 121.21 35.5081 121.21 65.9999Z" fill="#7CD2E3"/>
<path d="M108.281 37.3826V116.68C105.148 119.297 101.768 121.629 98.1812 123.636C96.9316 124.335 95.3906 123.42 95.3906 121.988V37.3826C95.3906 35.9587 96.5449 34.8044 97.9688 34.8044H105.703C107.127 34.8044 108.281 35.9587 108.281 37.3826Z" fill="#3D4EC6"/>
<path d="M23.2031 103.125H15.4688C14.0449 103.125 12.8906 101.971 12.8906 100.547V36.0935C12.8906 34.6696 14.0449 33.5154 15.4688 33.5154H23.2031C24.627 33.5154 25.7813 34.6696 25.7813 36.0935V100.547C25.7813 101.971 24.627 103.125 23.2031 103.125ZM128.906 86.0282V67.031C128.906 65.6071 127.752 64.4529 126.328 64.4529H118.594C117.17 64.4529 116.016 65.6071 116.016 67.031V109.065C121.75 102.41 126.18 94.599 128.906 86.0282ZM67.0313 79.9217V15.4685C67.0313 14.0446 65.8771 12.8904 64.4532 12.8904H56.7188C55.2949 12.8904 54.1407 14.0446 54.1407 15.4685V79.9217C54.1407 81.3456 55.2949 82.4998 56.7188 82.4998H64.4532C65.8771 82.4998 67.0313 81.3456 67.0313 79.9217Z" fill="#FFB52D"/>
<path d="M64.4532 38.6716H61.8805C60.4566 38.6716 59.3024 37.5174 59.3024 36.0935V15.4685C59.3024 14.0446 60.4566 12.8904 61.8805 12.8904H64.4532C65.8771 12.8904 67.0314 14.0446 67.0314 15.4685V36.0935C67.0314 37.5174 65.8771 38.6716 64.4532 38.6716ZM128.906 81.8362V67.031C128.906 65.6071 127.752 64.4529 126.328 64.4529H123.756C122.332 64.4529 121.177 65.6071 121.177 67.031V81.8362C121.177 83.2601 122.332 84.4143 123.756 84.4143H126.328C127.752 84.4143 128.906 83.2598 128.906 81.8362ZM25.7813 53.1584V36.0935C25.7813 34.6696 24.6271 33.5154 23.2032 33.5154H20.6305C19.2066 33.5154 18.0524 34.6696 18.0524 36.0935V53.1584C18.0524 54.5823 19.2066 55.7365 20.6305 55.7365H23.2032C24.6271 55.7365 25.7813 54.5823 25.7813 53.1584Z" fill="#FFC14F"/>
<path d="M85.0782 103.125H77.3438C75.9199 103.125 74.7656 101.971 74.7656 100.547V42.281C74.7656 40.8571 75.9199 39.7029 77.3438 39.7029H85.0782C86.5021 39.7029 87.6563 40.8571 87.6563 42.281V100.547C87.6563 101.971 86.5021 103.125 85.0782 103.125ZM46.4063 90.2342V25.781C46.4063 24.3571 45.252 23.2029 43.8281 23.2029H36.0938C34.6699 23.2029 33.5156 24.3571 33.5156 25.781V90.2342C33.5156 91.6581 34.6699 92.8123 36.0938 92.8123H43.8281C45.252 92.8123 46.4063 91.6581 46.4063 90.2342ZM105.703 109.065H103.13C101.707 109.065 100.552 107.91 100.552 106.486V37.3826C100.552 35.9587 101.707 34.8045 103.13 34.8045H105.703C107.127 34.8045 108.281 35.9587 108.281 37.3826V106.486C108.281 107.91 107.127 109.065 105.703 109.065Z" fill="#5766CE"/>
<path d="M43.8282 39.7029H41.2555C39.8316 39.7029 38.6774 38.5487 38.6774 37.1248V25.781C38.6774 24.3571 39.8316 23.2029 41.2555 23.2029H43.8282C45.2521 23.2029 46.4063 24.3571 46.4063 25.781V37.1248C46.4063 38.5487 45.2521 39.7029 43.8282 39.7029ZM87.6564 53.6248V42.281C87.6564 40.8571 86.5021 39.7029 85.0782 39.7029H82.5055C81.0816 39.7029 79.9274 40.8571 79.9274 42.281V53.6248C79.9274 55.0487 81.0816 56.2029 82.5055 56.2029H85.0782C86.5021 56.2029 87.6564 55.0487 87.6564 53.6248Z" fill="#717ED6"/>
<path d="M102.618 16.1729V25.6274C102.618 26.3392 102.04 26.9164 101.329 26.9164C100.617 26.9164 100.039 26.3392 100.039 25.6274V19.4084L75.4514 43.9965C74.9479 44.4998 74.1319 44.4998 73.6284 43.9965L65.6908 36.059L35.8908 63.8241C35.6423 64.0562 35.3264 64.1709 35.0114 64.1709C34.6667 64.1709 34.3228 64.0335 34.0688 63.7615C33.5831 63.2409 33.611 62.4252 34.1315 61.9395L64.8419 33.3246C65.3498 32.8502 66.1418 32.8642 66.6331 33.3553L74.5397 41.2619L98.34 17.4617H91.8738C91.162 17.4617 90.5847 16.8844 90.5847 16.1726C90.5847 15.4608 91.162 14.8835 91.8738 14.8835H101.328C102.04 14.8838 102.618 15.4608 102.618 16.1729Z" fill="#FFF5F5"/>
<path d="M74.5312 52.3622C67.7131 48.6492 59.1439 46.6045 50.4023 46.6045C41.6606 46.6045 33.0912 48.6495 26.2731 52.3625C24.5594 53.296 23.5361 54.9156 23.5361 56.695V62.7041C23.5361 66.1372 26.8158 68.93 30.8469 68.93H69.9571C73.9883 68.93 77.2679 66.1372 77.2679 62.7041V56.695C77.2684 54.9153 76.2452 53.2958 74.5312 52.3622ZM74.6903 62.7039C74.6903 64.7153 72.5672 66.3517 69.9576 66.3517H30.8474C28.2376 66.3517 26.1148 64.7153 26.1148 62.7039V56.6948C26.1148 55.8741 26.6353 55.101 27.5064 54.6263C33.9528 51.1157 42.0842 49.1824 50.4025 49.1824C58.7209 49.1824 66.8523 51.1157 73.2986 54.6263C74.1703 55.101 74.6906 55.8741 74.6906 56.6948V62.7039H74.6903Z" fill="#7C3F2C"/>
<path d="M90.6882 70.4151V99.0277C90.6882 117.065 75.9529 131.701 57.9181 131.416C57.3649 131.407 56.9431 131.384 56.6765 131.346C30.8362 127.693 9.80747 109.074 2.64001 84.5412V70.4151C2.64001 65.113 6.93827 60.8147 12.2404 60.8147H81.0875C86.3897 60.8147 90.6882 65.113 90.6882 70.4151Z" fill="#954C35"/>
<path d="M98.1647 70.4151V123.645C88.6481 128.967 77.6782 132 66 132C62.8351 132 59.7223 131.777 56.6762 131.346C48.8238 121.026 44.162 108.145 44.162 94.1762C44.162 81.877 47.7757 70.4218 53.9993 60.8147H88.564C93.8662 60.8147 98.1647 65.113 98.1647 70.4151Z" fill="#AE583E"/>
<path d="M100.805 70.8287V79.7452C100.805 82.0936 99.6626 84.2984 97.7376 85.6434C84.8106 94.6756 68.3397 100.087 50.4024 100.087C32.4651 100.087 15.9942 94.6756 3.0672 85.6434C1.14211 84.2984 0 82.0939 0 79.7454V70.829C0 65.2337 4.53596 60.698 10.131 60.698H90.6735C96.2688 60.6977 100.805 65.2334 100.805 70.8287Z" fill="#C0694E"/>
<path d="M100.805 70.8428V79.7593C100.805 82.1077 99.6626 84.3125 97.7375 85.6575C84.8105 94.6897 68.3397 100.101 50.4023 100.101C48.3592 100.101 46.3351 100.031 44.3332 99.8929C44.2197 98.3679 44.162 96.8272 44.162 95.2731C44.162 82.4575 48.0856 70.5584 54.797 60.7115H90.6737C96.2688 60.7118 100.805 65.2475 100.805 70.8428Z" fill="#C97E67"/>
<path d="M61.2029 104.185H39.6018C38.2761 104.185 37.2015 103.111 37.2015 101.785V99.385C37.2015 98.0593 38.2761 96.9847 39.6018 96.9847H61.2029C62.5285 96.9847 63.6031 98.0593 63.6031 99.385V101.785C63.6028 103.111 62.5283 104.185 61.2029 104.185Z" fill="#FF9F22"/>
<path d="M61.2029 104.185H44.162C42.8363 104.185 41.7617 103.111 41.7617 101.785V99.385C41.7617 98.0593 42.8363 96.9847 44.162 96.9847H61.2029C62.5285 96.9847 63.6031 98.0593 63.6031 99.385V101.785C63.6028 103.111 62.5283 104.185 61.2029 104.185Z" fill="#FFC14F"/>
<path d="M60.0028 101.785H40.8019C40.1391 101.785 39.6018 101.248 39.6018 100.585C39.6018 99.9225 40.1391 99.3853 40.8019 99.3853H60.0028C60.6656 99.3853 61.2029 99.9225 61.2029 100.585C61.2029 101.248 60.6656 101.785 60.0028 101.785Z" fill="#FF9100"/>
<path d="M47.7624 101.785H40.8019C40.1391 101.785 39.6018 101.248 39.6018 100.585C39.6018 99.9225 40.1391 99.3853 40.8019 99.3853H47.7624C47.0995 99.3853 46.5622 99.9225 46.5622 100.585C46.5622 101.248 47.0995 101.785 47.7624 101.785Z" fill="#DD7D00"/>
<path d="M48.9326 50.141C48.9326 52.7978 46.7789 54.9515 44.1221 54.9515H31.9629C29.4051 54.9515 27.3315 53.6272 27.3315 51.9934V50.9297C27.3315 50.2439 27.8536 49.6004 28.7338 49.2075C32.9753 47.3146 38.0514 45.9665 43.6109 45.3563C46.4525 45.0441 48.9326 47.2821 48.9326 50.141Z" fill="#AE583E"/>
<path d="M73.4136 50.9296V51.9933C73.4136 53.6271 71.34 54.9515 68.7822 54.9515H44.1439C41.4863 54.9515 39.3318 52.7972 39.3318 50.1394C39.3318 47.6938 41.1643 45.6251 43.5952 45.3578C45.7864 45.1167 48.0526 44.9901 50.3724 44.9901C58.5723 44.9901 66.1018 46.5702 72.0113 49.2074C72.8915 49.6001 73.4136 50.2438 73.4136 50.9296Z" fill="#C0694E"/>
<path d="M84.3632 17.6599C84.3632 18.3717 83.7859 18.949 83.0741 18.949H76.5115C75.7997 18.949 75.2224 18.3717 75.2224 17.6599C75.2224 16.9481 75.7997 16.3708 76.5115 16.3708H83.0741C83.7862 16.3708 84.3632 16.9481 84.3632 17.6599Z" fill="#ECECF1"/>
<path d="M83.6065 23.5896C83.6065 24.3014 83.0293 24.8787 82.3174 24.8787H77.2682C76.5564 24.8787 75.9791 24.3014 75.9791 23.5896C75.9791 22.8778 76.5564 22.3005 77.2682 22.3005H82.3174C83.0295 22.3005 83.6065 22.8778 83.6065 23.5896ZM77.2684 13.0193H82.3177C83.0295 13.0193 83.6068 12.442 83.6068 11.7302C83.6068 11.0184 83.0295 10.4412 82.3177 10.4412H77.2684C76.5566 10.4412 75.9794 11.0184 75.9794 11.7302C75.9794 12.442 76.5564 13.0193 77.2684 13.0193Z" fill="#C2EAF2"/>
</svg>
