<svg width="27" height="27" viewBox="0 0 27 27" fill="none" xmlns="http://www.w3.org/2000/svg">
<path fill-rule="evenodd" clip-rule="evenodd" d="M0.429591 0.429591C0.705014 0.15451 1.07836 0 1.46763 0C1.85689 0 2.23024 0.15451 2.50567 0.429591L26.0084 23.9323C26.1527 24.0668 26.2685 24.229 26.3488 24.4092C26.429 24.5893 26.4722 24.7839 26.4757 24.9811C26.4792 25.1783 26.4429 25.3742 26.369 25.5571C26.2951 25.7401 26.1852 25.9062 26.0457 26.0457C25.9062 26.1852 25.7401 26.2951 25.5571 26.369C25.3742 26.4429 25.1783 26.4792 24.9811 26.4757C24.7839 26.4722 24.5893 26.429 24.4092 26.3488C24.229 26.2685 24.0668 26.1527 23.9323 26.0084L0.429591 2.50567C0.15451 2.23024 0 1.85689 0 1.46763C0 1.07836 0.15451 0.705014 0.429591 0.429591Z" fill="#111227"/>
<path fill-rule="evenodd" clip-rule="evenodd" d="M26.0087 0.429591C26.2838 0.705014 26.4383 1.07836 26.4383 1.46763C26.4383 1.85689 26.2838 2.23024 26.0087 2.50567L2.50596 26.0084C2.2275 26.2679 1.8592 26.4091 1.47865 26.4024C1.0981 26.3957 0.735013 26.2415 0.465881 25.9724C0.19675 25.7033 0.0425878 25.3402 0.0358734 24.9596C0.029159 24.5791 0.170416 24.2108 0.429886 23.9323L23.9326 0.429591C24.208 0.15451 24.5814 0 24.9707 0C25.3599 0 25.7333 0.15451 26.0087 0.429591Z" fill="#111227"/>
</svg>
