<svg width="152" height="152" viewBox="0 0 152 152" fill="none" xmlns="http://www.w3.org/2000/svg">
<path d="M120.531 116.375C110.708 116.375 102.719 108.386 102.719 98.5625C102.719 88.739 110.708 80.4531 120.531 80.4531C130.355 80.4531 138.344 88.739 138.344 98.5625C138.344 108.386 130.355 116.375 120.531 116.375Z" fill="#F6A96C"/>
<path d="M120.531 116.375C113.752 116.375 107.524 118.596 102.409 122.271L95.8698 137.043L107.172 152H152V147.547C152 130.332 137.747 116.375 120.531 116.375Z" fill="#32DDF9"/>
<path d="M22.5625 37.6185L8.76825 44.8281L11.3868 29.0137L0 18.1987L15.7877 15.9721L22.5625 0L29.5031 15.9721L44.8281 18.1987L33.7382 29.0137L36.3568 44.8281L22.5625 37.6185Z" fill="#FFDA2D"/>
<path d="M87.1328 28.9743L89.8047 44.8281L76 37.6138L62.1953 44.8281L64.8672 28.9743L53.7344 18.1987L69.231 15.9721L76 0L82.9476 15.9721L98.2656 18.1987L87.1328 28.9743Z" fill="#FFDA2D"/>
<path d="M129.438 37.6185L115.643 44.8281L118.262 29.0137L107.172 18.1987L122.663 15.9721L129.438 0L136.378 15.9721L152 18.1987L140.613 29.0137L143.232 44.8281L129.438 37.6185Z" fill="#FDBF00"/>
<path d="M31.4688 116.375C21.6452 116.375 13.6562 108.386 13.6562 98.5625C13.6562 88.739 21.6452 80.4531 31.4688 80.4531C41.2923 80.4531 49.2812 88.739 49.2812 98.5625C49.2812 108.386 41.2923 116.375 31.4688 116.375Z" fill="#FFBD86"/>
<path d="M31.4688 116.375C14.2535 116.375 0 130.332 0 147.547V152H44.8281L55.8751 138.641L49.5909 122.272C44.4756 118.596 38.2482 116.375 31.4688 116.375Z" fill="#84ECF7"/>
<path d="M89.8047 44.8281L76 37.6138V0L82.9476 15.9721L98.2656 18.1987L87.1328 28.9743L89.8047 44.8281Z" fill="#FDBF00"/>
<path d="M76 71.5469C66.2031 71.5469 58.1875 79.5625 58.1875 89.3594C58.1875 99.1562 66.2031 107.469 76 107.469C85.7969 107.469 93.8125 99.1562 93.8125 89.3594C93.8125 79.5625 85.7969 71.5469 76 71.5469Z" fill="#FED2A4"/>
<path d="M107.172 138.641V152H44.8281V138.641C44.8281 132.585 46.6094 127.062 49.5491 122.253C55.0703 113.435 64.8672 107.469 76 107.469C87.1328 107.469 96.9297 113.435 102.451 122.253C105.391 127.062 107.172 132.585 107.172 138.641Z" fill="#FF637B"/>
<path d="M76 107.469V71.5469C85.7969 71.5469 93.8125 79.5625 93.8125 89.3594C93.8125 99.1562 85.7969 107.469 76 107.469Z" fill="#F6A96C"/>
<path d="M107.172 138.641V152H76V107.469C87.1328 107.469 96.9297 113.435 102.451 122.253C105.391 127.062 107.172 132.585 107.172 138.641Z" fill="#E63950"/>
</svg>
