<svg width="35" height="25" viewBox="0 0 35 25" fill="none" xmlns="http://www.w3.org/2000/svg">
<path d="M33.9727 3.8003C33.573 2.31426 32.4014 1.14284 30.9156 0.742699C28.2012 0 17.3433 0 17.3433 0C17.3433 0 6.48591 0 3.7715 0.71454C2.31426 1.11426 1.11405 2.31448 0.714329 3.8003C0 6.51449 0 12.1434 0 12.1434C0 12.1434 0 17.8006 0.714329 20.4865C1.11447 21.9723 2.28568 23.1437 3.77171 23.5438C6.51449 24.2868 17.3437 24.2868 17.3437 24.2868C17.3437 24.2868 28.2012 24.2868 30.9156 23.5722C32.4016 23.1723 33.573 22.0009 33.9732 20.515C34.6873 17.8006 34.6873 12.172 34.6873 12.172C34.6873 12.172 34.7159 6.51449 33.9727 3.8003ZM13.8864 17.3435V6.94322L22.9153 12.1434L13.8864 17.3435Z" fill="#111227"/>
</svg>
