<svg width="27" height="27" viewBox="0 0 27 27" fill="none" xmlns="http://www.w3.org/2000/svg">
<path d="M13.9419 8.86109C11.5451 8.83151 9.56502 10.7633 9.53543 13.1601C9.50584 15.5569 11.4376 17.5371 13.8344 17.5667C16.2311 17.5962 18.2112 15.6644 18.2408 13.2676C18.2704 10.8708 16.3386 8.89068 13.9419 8.86109ZM26.943 13.375C26.9652 11.5725 27.0036 9.78656 26.9246 7.98608C26.8491 5.89497 26.3953 4.03434 24.886 2.48727C23.3735 0.936889 21.5278 0.440549 19.4393 0.313522C17.6381 0.190043 15.8517 0.18432 14.0525 0.162108C12.2501 0.139856 10.4641 0.101479 8.66366 0.180495C6.5726 0.255923 4.712 0.709774 3.16495 2.21912C1.6146 3.73168 1.11827 5.57732 0.991245 7.66593C0.867767 9.46718 0.862043 11.2536 0.839831 13.0528C0.817619 14.852 0.779202 16.6413 0.858215 18.4417C0.933641 20.5329 1.38748 22.3935 2.8968 23.9406C4.40933 25.4909 6.25494 25.9873 8.3435 26.1143C10.1447 26.2378 11.9311 26.2435 13.7303 26.2657C15.5327 26.288 17.3187 26.3263 19.1191 26.2473C21.2102 26.1719 23.0708 25.7181 24.6178 24.2087C26.1682 22.6961 26.6645 20.8505 26.7915 18.7619C26.9182 16.964 26.9207 15.1775 26.943 13.375ZM13.8054 19.9112C10.0993 19.8655 7.14516 16.8374 7.19092 13.1312C7.23667 9.42496 10.2646 6.47078 13.9708 6.51654C17.677 6.56229 20.6311 9.59032 20.5853 13.2966C20.5396 17.0028 17.5116 19.957 13.8054 19.9112ZM20.9264 7.89243C20.0611 7.88175 19.3709 7.17433 19.3816 6.309C19.3923 5.44367 20.0997 4.7535 20.965 4.76418C21.8303 4.77486 22.5205 5.48229 22.5098 6.34762C22.5075 6.5531 22.4647 6.75611 22.3839 6.94502C22.303 7.13394 22.1857 7.30505 22.0386 7.44855C21.8915 7.59205 21.7176 7.70512 21.5267 7.78129C21.3359 7.85746 21.1319 7.89523 20.9264 7.89243Z" fill="#111227"/>
</svg>
