<svg width="31" height="31" viewBox="0 0 31 31" fill="none" xmlns="http://www.w3.org/2000/svg">
<path d="M30.4 30.3998V19.2658C30.4 13.7938 29.222 9.61377 22.838 9.61377C19.76 9.61377 17.708 11.2858 16.872 12.8818H16.796V10.1078H10.754V30.3998H17.062V20.3298C17.062 17.6698 17.556 15.1238 20.824 15.1238C24.054 15.1238 24.092 18.1258 24.092 20.4818V30.3618H30.4V30.3998Z" fill="#111227"/>
<path d="M0.494019 10.1079H6.80202V30.3999H0.494019V10.1079Z" fill="#111227"/>
<path d="M3.648 0C1.634 0 0 1.634 0 3.648C0 5.662 1.634 7.334 3.648 7.334C5.662 7.334 7.296 5.662 7.296 3.648C7.296 1.634 5.662 0 3.648 0Z" fill="#111227"/>
</svg>
