<svg width="1920" height="5931" viewBox="0 0 1920 5931" fill="none" xmlns="http://www.w3.org/2000/svg">
<path d="M-27.3247 0L425.931 453.255C476.699 504.024 476.699 586.335 425.931 637.103L-245.821 1308.85L-791 763.675L-27.3247 0Z" fill="#111227"/>
<path d="M1953.18 1064L1499.92 1517.26C1449.16 1568.02 1449.16 1650.34 1499.92 1701.1L2171.68 2372.85L2716.85 1827.68L1953.18 1064Z" fill="#FCB623"/>
<path d="M-27.3247 1926L425.931 2379.26C476.699 2430.02 476.699 2512.34 425.931 2563.1L-245.821 3234.85L-791 2689.68L-27.3247 1926Z" fill="#111227"/>
<path d="M1953.18 2990L1499.92 3443.26C1449.16 3494.02 1449.16 3576.34 1499.92 3627.1L2171.68 4298.85L2716.85 3753.68L1953.18 2990Z" fill="#FCB623"/>
<path d="M1953.18 4850L1499.92 5303.26C1449.16 5354.02 1449.16 5436.34 1499.92 5487.1L2171.68 6158.85L2716.85 5613.68L1953.18 4850Z" fill="#111227"/>
</svg>
