<svg width="46" height="49" viewBox="0 0 46 49" fill="none" xmlns="http://www.w3.org/2000/svg">
<path d="M14.7409 32.3322C12.0639 34.4347 10.3405 37.6977 10.3405 41.3628V44.8095H3.44696C1.53974 44.8095 0.000183105 43.27 0.000183105 41.3628V39.0649C0.000183105 34.6186 3.59632 31.0224 8.04266 31.0224H10.3405C11.972 31.0224 13.4771 31.505 14.7409 32.3322Z" fill="#FCB623"/>
<path d="M36.7658 31.0224C39.6212 31.0224 41.936 28.7077 41.936 25.8523C41.936 22.9969 39.6212 20.6821 36.7658 20.6821C33.9104 20.6821 31.5956 22.9969 31.5956 25.8523C31.5956 28.7077 33.9104 31.0224 36.7658 31.0224Z" fill="#FCB623"/>
<path d="M9.19159 31.0224C12.047 31.0224 14.3618 28.7077 14.3618 25.8523C14.3618 22.9969 12.047 20.6821 9.19159 20.6821C6.33619 20.6821 4.02142 22.9969 4.02142 25.8523C4.02142 28.7077 6.33619 31.0224 9.19159 31.0224Z" fill="#FCB623"/>
<path d="M45.9572 39.0649V41.3628C45.9572 43.27 44.4177 44.8095 42.5104 44.8095H35.6169V41.3628C35.6169 37.6977 33.8935 34.4347 31.2165 32.3322C32.4803 31.505 33.9854 31.0224 35.6169 31.0224H37.9147C42.3611 31.0224 45.9572 34.6186 45.9572 39.0649Z" fill="#FCB623"/>
<path d="M22.9787 32.1714C26.4686 32.1714 29.2978 29.3422 29.2978 25.8523C29.2978 22.3623 26.4686 19.5332 22.9787 19.5332C19.4888 19.5332 16.6596 22.3623 16.6596 25.8523C16.6596 29.3422 19.4888 32.1714 22.9787 32.1714Z" fill="#FCB623"/>
<path d="M24.1276 32.1714H21.8298C16.7619 32.1714 12.6384 36.2949 12.6384 41.3628V44.8095C12.6384 46.7099 14.1848 48.2563 16.0851 48.2563H29.8723C31.7726 48.2563 33.319 46.7099 33.319 44.8095V41.3628C33.319 36.2949 29.1955 32.1714 24.1276 32.1714Z" fill="#FCB623"/>
<path d="M39.6381 15.7234L36.8658 16.7091C36.0787 16.9883 35.2573 16.392 35.2802 15.5568L35.3607 12.6155L33.566 10.2832C33.0571 9.62141 33.3707 8.65516 34.1715 8.41848L36.9944 7.58666L38.6581 5.15898C39.1303 4.47077 40.1459 4.47077 40.6181 5.15898L42.2818 7.58666L45.1047 8.41848C45.9055 8.65401 46.2192 9.62141 45.7102 10.2832L43.9156 12.6155L43.996 15.5568C44.019 16.3909 43.1963 16.9883 42.4105 16.7091L39.6381 15.7234Z" fill="#FCB623"/>
<path d="M6.31927 15.7234L3.54691 16.7091C2.7599 16.9883 1.93841 16.392 1.96139 15.5568L2.04182 12.6155L0.247194 10.2832C-0.26178 9.62141 0.0518768 8.65516 0.852678 8.41848L3.67559 7.58666L5.33923 5.15898C5.81144 4.47077 6.82709 4.47077 7.2993 5.15898L8.96295 7.58666L11.7859 8.41848C12.5867 8.65401 12.9003 9.62141 12.3913 10.2832L10.5967 12.6155L10.6771 15.5568C10.7001 16.3909 9.87749 16.9883 9.09163 16.7091L6.31927 15.7234Z" fill="#FCB623"/>
<path d="M22.9787 13.1383L19.6916 14.3067C18.7587 14.6388 17.7844 13.9299 17.812 12.9406L17.9073 9.45365L15.7795 6.68818C15.1763 5.90347 15.5486 4.75799 16.4976 4.47765L19.8444 3.49072L21.8171 0.612665C22.3766 -0.204222 23.5819 -0.204222 24.1414 0.612665L26.1141 3.49072L29.4609 4.47765C30.4099 4.75799 30.7822 5.90347 30.179 6.68818L28.0512 9.45365L28.1465 12.9406C28.1741 13.9299 27.1987 14.6388 26.2669 14.3067L22.9787 13.1383Z" fill="#FCB623"/>
</svg>
