<svg width="50" height="50" viewBox="0 0 50 50" fill="none" xmlns="http://www.w3.org/2000/svg">
<circle cx="25" cy="25" r="25" fill="#111227"/>
<path d="M24.9978 22.3322C23.5289 22.3322 22.3301 23.531 22.3301 25C22.3301 26.469 23.5289 27.6678 24.9978 27.6678C26.4668 27.6678 27.6656 26.469 27.6656 25C27.6656 23.531 26.4668 22.3322 24.9978 22.3322ZM32.9991 25C32.9991 23.8953 33.0091 22.8005 32.9471 21.6978C32.885 20.4169 32.5928 19.2801 31.6562 18.3435C30.7176 17.4049 29.5829 17.1147 28.302 17.0526C27.1973 16.9906 26.1026 17.0006 24.9999 17.0006C23.8951 17.0006 22.8004 16.9906 21.6977 17.0526C20.4168 17.1147 19.2801 17.4069 18.3435 18.3435C17.4049 19.2821 17.1147 20.4169 17.0526 21.6978C16.9906 22.8025 17.0006 23.8973 17.0006 25C17.0006 26.1027 16.9906 27.1995 17.0526 28.3022C17.1147 29.5831 17.4069 30.7199 18.3435 31.6565C19.2821 32.5951 20.4168 32.8853 21.6977 32.9474C22.8024 33.0094 23.8971 32.9994 24.9999 32.9994C26.1046 32.9994 27.1993 33.0094 28.302 32.9474C29.5829 32.8853 30.7196 32.5931 31.6562 31.6565C32.5948 30.7179 32.885 29.5831 32.9471 28.3022C33.0111 27.1995 32.9991 26.1047 32.9991 25ZM24.9978 29.1048C22.7264 29.1048 20.8932 27.2715 20.8932 25C20.8932 22.7285 22.7264 20.8952 24.9978 20.8952C27.2693 20.8952 29.1025 22.7285 29.1025 25C29.1025 27.2715 27.2693 29.1048 24.9978 29.1048ZM29.2707 21.6858C28.7403 21.6858 28.312 21.2575 28.312 20.7271C28.312 20.1968 28.7403 19.7685 29.2707 19.7685C29.801 19.7685 30.2293 20.1968 30.2293 20.7271C30.2294 20.853 30.2048 20.9778 30.1566 21.0942C30.1085 21.2105 30.0379 21.3163 29.9489 21.4053C29.8598 21.4944 29.7541 21.565 29.6377 21.6131C29.5213 21.6612 29.3966 21.6859 29.2707 21.6858Z" fill="white"/>
</svg>
