<svg width="47" height="62" viewBox="0 0 47 62" fill="none" xmlns="http://www.w3.org/2000/svg">
<path opacity="0.25" d="M47 3.10186L47 58.9035C46.9982 59.4684 46.8404 60.0222 46.5437 60.5052C46.2469 60.9882 45.8224 61.3821 45.3158 61.6445C44.8092 61.907 44.2397 62.028 43.6687 61.9946C43.0977 61.9611 42.5467 61.7745 42.075 61.4548L1.26891 33.554C-0.42297 32.3977 -0.42297 29.6138 1.26891 28.4544L42.075 0.553592C42.5457 0.23064 43.0969 0.0412537 43.6689 0.00600893C44.2409 -0.0292359 44.8118 0.0910093 45.3194 0.35368C45.8271 0.616351 46.2522 1.0114 46.5484 1.49591C46.8447 1.98042 47.0009 2.53585 47 3.10186Z" fill="#111227"/>
</svg>
