<svg width="125" height="128" viewBox="0 0 125 128" fill="none" xmlns="http://www.w3.org/2000/svg">
<path d="M75.9115 115.409V118.604C75.9115 118.884 75.8965 119.165 75.8664 119.438C75.4505 123.197 72.2632 126.121 68.3944 126.121H56.8681C52.9993 126.121 49.8121 123.197 49.3961 119.438C49.366 119.165 49.351 118.884 49.351 118.604V115.409C50.3458 115.852 51.4483 116.098 52.6084 116.098H72.6541C73.8143 116.098 74.9168 115.852 75.9115 115.409Z" fill="#50758D"/>
<path d="M62.2554 16.4282C61.2173 16.4282 60.3761 15.587 60.3761 14.5489V1.87928C60.3761 0.841167 61.2173 0 62.2554 0C63.2935 0 64.1347 0.841167 64.1347 1.87928V14.5489C64.1347 15.587 63.2932 16.4282 62.2554 16.4282Z" fill="#FFE7C9"/>
<path d="M28.522 30.4013C28.0409 30.4013 27.56 30.2179 27.193 29.8511L18.234 20.8919C17.5001 20.1577 17.5001 18.968 18.234 18.2341C18.9685 17.5002 20.1582 17.5007 20.8918 18.2341L29.8508 27.1933C30.5847 27.9274 30.5847 29.1171 29.8508 29.8511C29.4837 30.2179 29.0026 30.4013 28.522 30.4013Z" fill="#FFE7C9"/>
<path d="M14.5492 64.1344H1.87928C0.841167 64.1344 0 63.2933 0 62.2551C0 61.217 0.841167 60.3759 1.87928 60.3759H14.5489C15.587 60.3759 16.4282 61.217 16.4282 62.2551C16.4282 63.2933 15.587 64.1344 14.5492 64.1344Z" fill="#FFE7C9"/>
<path d="M19.5631 106.827C19.0822 106.827 18.6011 106.643 18.234 106.276C17.5001 105.542 17.5001 104.353 18.234 103.619L27.193 94.6598C27.9271 93.9261 29.1168 93.9261 29.8508 94.6598C30.5847 95.3939 30.5847 96.5836 29.8508 97.3176L20.8918 106.276C20.5248 106.643 20.0439 106.827 19.5631 106.827Z" fill="#FFE7C9"/>
<path d="M104.947 106.827C104.467 106.827 103.986 106.643 103.618 106.276L94.6595 97.3176C93.9256 96.5834 93.9256 95.3937 94.6595 94.6598C95.3937 93.9261 96.5834 93.9261 97.3173 94.6598L106.276 103.619C107.01 104.353 107.01 105.543 106.276 106.276C105.909 106.643 105.428 106.827 104.947 106.827Z" fill="#FFE7C9"/>
<path d="M122.631 64.1344H109.962C108.924 64.1344 108.082 63.2933 108.082 62.2551C108.082 61.217 108.924 60.3759 109.962 60.3759H122.631C123.669 60.3759 124.511 61.217 124.511 62.2551C124.511 63.2933 123.669 64.1344 122.631 64.1344Z" fill="#FFE7C9"/>
<path d="M95.9885 30.4013C95.5077 30.4013 95.0266 30.2179 94.6595 29.8511C93.9256 29.1169 93.9256 27.9272 94.6595 27.1933L103.618 18.2341C104.353 17.5004 105.542 17.5004 106.276 18.2341C107.01 18.9683 107.01 20.158 106.276 20.8919L97.3173 29.8511C96.9505 30.2179 96.4694 30.4013 95.9885 30.4013Z" fill="#FFE7C9"/>
<path d="M62.6313 113.592C62.6313 113.592 50.3458 115.852 49.351 115.409V118.604C49.351 118.884 49.366 119.165 49.3961 119.438C49.8121 123.197 52.9993 126.121 56.8681 126.121H60.1256C56.8569 126.121 54.0753 124.033 53.0399 121.119C52.8648 120.626 53.2236 120.107 53.7465 120.107H72.6541C73.7967 120.107 74.8842 119.869 75.8664 119.438C75.8965 119.165 75.9115 118.884 75.9115 118.604V115.409C74.9168 115.852 62.6313 113.592 62.6313 113.592Z" fill="#2B597F"/>
<path d="M80.6724 108.08C80.6724 111.347 78.7154 114.161 75.9115 115.409C74.9168 115.852 73.8143 116.098 72.6541 116.098H52.6084C51.4483 116.098 50.3458 115.852 49.351 115.409C46.5471 114.161 44.5902 111.347 44.5902 108.08C44.5902 108.08 44.4724 96.3679 44.4498 96.0622V96.0522L62.6313 93.5465L80.6047 96.0522L80.6724 108.08Z" fill="#50758D"/>
<path d="M58.8727 116.098H52.6084C51.4483 116.098 50.3458 115.852 49.351 115.409C46.5471 114.161 44.5902 111.347 44.5902 108.08C44.5902 108.08 44.4724 96.368 44.4498 96.0623V96.0522H50.7141V96.0623C50.7367 96.368 50.8544 108.08 50.8544 108.08C50.8544 111.347 52.8114 114.161 55.6153 115.409C56.6098 115.852 57.7123 116.098 58.8727 116.098Z" fill="#2B597F"/>
<path d="M80.6724 107.954H74.2828C73.2454 107.954 72.4035 107.112 72.4035 106.075C72.4035 105.038 73.2454 104.196 74.2828 104.196H80.6523L80.6623 106.075L80.6724 107.954Z" fill="#2B597F"/>
<path d="M67.3921 106.075C67.3921 107.112 66.5502 107.954 65.5128 107.954H44.5876L44.545 104.196H65.5128C66.5502 104.196 67.3921 105.038 67.3921 106.075Z" fill="#2B597F"/>
<path d="M62.288 22.6775C62.2877 22.6775 62.2875 22.6775 62.2872 22.6775L62.288 22.6767C42.9361 22.3791 26.662 39.2455 27.0101 58.4565C27.0101 68.2564 30.8914 77.1391 37.1807 83.6013C40.8867 87.4125 44.094 90.9356 44.4498 96.0522L80.6047 96.1124C80.8077 90.8454 83.802 87.2873 87.533 83.3909C93.7021 76.9487 97.5007 68.1536 97.5007 58.4565C97.5005 38.7065 81.7398 22.695 62.288 22.6775Z" fill="#FAD207"/>
<path d="M80.6045 96.1023V96.1124L44.4496 96.0522C44.0938 90.9356 40.8865 87.4125 37.1805 83.6013C30.8912 77.1391 27.0098 68.2564 27.0098 58.4565C26.6615 39.2452 42.9361 22.3793 62.2877 22.6775C63.265 22.6775 64.2322 22.7201 65.1894 22.7978C47.3537 24.3613 32.9459 40.3703 33.2741 58.4565C33.2741 68.2564 37.1554 77.1391 43.4448 83.6013C47.1507 87.4125 50.358 90.9356 50.7139 96.0522L80.6045 96.1023Z" fill="#FAA515"/>
<path d="M63.1402 76.365C62.3902 77.331 61.2511 77.9156 60.0291 77.9609C59.9774 77.9629 59.9258 77.9639 59.8745 77.9639C58.7081 77.9639 57.593 77.4705 56.8075 76.6016L45.0306 63.5721C43.4996 61.878 43.6317 59.2638 45.3258 57.7326C47.0197 56.2013 49.6336 56.3334 51.1654 58.0275L59.6347 67.3976L73.1472 49.9952C74.5474 48.1918 77.1448 47.8648 78.9482 49.2653C80.7518 50.6657 81.0785 53.2631 79.6781 55.0665L63.1402 76.365Z" fill="#FAA515"/>
<path d="M62.2554 16.4282C63.2935 16.4282 64.1347 15.587 64.1347 14.5489V1.87928C64.1347 0.841167 63.2935 0 62.2554 0C61.2173 0 60.3761 0.841167 60.3761 1.87928V14.5489C60.3761 15.587 61.2173 16.4282 62.2554 16.4282Z" fill="#111227"/>
<path d="M27.193 29.8511C27.9271 30.5847 29.1166 30.5847 29.8508 29.8511C30.5847 29.1169 30.5847 27.9272 29.8508 27.1933L20.8918 18.2341C20.1579 17.5007 18.9682 17.5002 18.234 18.2341C17.5001 18.9683 17.5001 20.158 18.234 20.8919L27.193 29.8511Z" fill="#111227"/>
<path d="M14.5492 60.3759H1.87928C0.841167 60.3759 0 61.217 0 62.2551C0 63.2933 0.841167 64.1344 1.87928 64.1344H14.5489C15.587 64.1344 16.4282 63.2933 16.4282 62.2551C16.4282 61.217 15.587 60.3759 14.5492 60.3759Z" fill="#111227"/>
<path d="M27.193 94.6594L18.234 103.618C17.5001 104.353 17.5001 105.542 18.234 106.276C18.9682 107.01 20.1577 107.01 20.8918 106.276L29.8508 97.3172C30.5847 96.5831 30.5847 95.3934 29.8508 94.6594C29.1168 93.926 27.9271 93.926 27.193 94.6594Z" fill="#111227"/>
<path d="M97.3176 94.6595C96.5834 93.9258 95.3937 93.9258 94.6598 94.6595C93.9258 95.3937 93.9258 96.5834 94.6598 97.3173L103.619 106.276C104.353 107.01 105.542 107.01 106.276 106.276C107.01 105.542 107.01 104.352 106.276 103.618L97.3176 94.6595Z" fill="#111227"/>
<path d="M122.631 60.3759H109.962C108.924 60.3759 108.082 61.217 108.082 62.2551C108.082 63.2933 108.924 64.1344 109.962 64.1344H122.631C123.669 64.1344 124.511 63.2933 124.511 62.2551C124.511 61.217 123.669 60.3759 122.631 60.3759Z" fill="#111227"/>
<path d="M103.619 18.2341L94.6598 27.1933C93.9258 27.9274 93.9258 29.1171 94.6598 29.8511C95.3939 30.5847 96.5834 30.5847 97.3176 29.8511L106.276 20.8919C107.01 20.1577 107.01 18.968 106.276 18.2341C105.542 17.5004 104.353 17.5004 103.619 18.2341Z" fill="#111227"/>
<path d="M99.3805 58.4565C99.3805 37.6911 82.7263 20.7974 62.2554 20.7974C55.0845 20.7974 48.1247 22.8754 42.1285 26.8066C36.2947 30.6315 31.6441 36.0125 28.6796 42.3678C28.2408 43.3084 28.6478 44.4267 29.5882 44.8655C30.5296 45.3047 31.6471 44.8973 32.0859 43.9569C37.5831 32.1713 49.4254 24.5559 62.2554 24.5559C80.6538 24.5559 95.6219 39.7636 95.6219 58.4565C95.6219 67.3352 92.2668 75.7293 86.1749 82.0921C82.6636 85.7592 79.6748 89.2632 78.9058 94.1729H46.0963C45.1273 89.076 41.6507 85.5001 38.5265 82.2895C32.3116 75.9025 28.8888 67.4382 28.8888 58.4565C28.8888 56.2386 29.1011 54.0206 29.5193 51.8634C29.717 50.8446 29.0512 49.8584 28.0321 49.6607C27.0133 49.4645 26.027 50.129 25.8293 51.148C25.3653 53.5402 25.1302 55.9991 25.1302 58.4565C25.1302 68.4229 28.9312 77.8181 35.8329 84.9107C39.7967 88.984 42.6026 92.2354 42.6026 97.0011C42.6026 97.0176 42.6028 97.0346 42.6033 97.0512L42.7111 108.08C42.7111 111.657 44.6197 114.798 47.4719 116.537V118.604C47.4719 123.785 51.687 128 56.8683 128H68.3946C73.5759 128 77.791 123.785 77.791 118.604V116.537C80.6433 114.798 82.5519 111.657 82.5519 108.08C82.5519 108.08 82.5386 95.7951 82.5135 95.6725C82.8701 91.3171 85.5101 88.2213 88.8898 84.6912C95.6545 77.6254 99.3805 68.3082 99.3805 58.4565ZM74.0322 118.604C74.0322 121.712 71.5029 124.241 68.3944 124.241H56.8681C53.7595 124.241 51.2302 121.712 51.2302 118.604V117.879C51.681 117.942 52.1406 117.977 52.6084 117.977H72.6541C73.1219 117.977 73.5814 117.942 74.0322 117.879V118.604ZM72.6541 114.219H52.6084C49.2232 114.219 46.4694 111.465 46.4694 108.08V107.954H65.5128C66.5509 107.954 67.3921 107.113 67.3921 106.075C67.3921 105.037 66.5509 104.196 65.5128 104.196H46.4694V97.9314H78.7349L78.7931 104.196H74.2828C73.2447 104.196 72.4035 105.037 72.4035 106.075C72.4035 107.113 73.2447 107.954 74.2828 107.954H78.7931V108.08C78.7931 111.465 76.039 114.219 72.6541 114.219Z" fill="#111227"/>
<path d="M74.4733 58.7051C73.8368 59.5247 73.9854 60.7054 74.805 61.3419C75.6244 61.9786 76.8051 61.8302 77.4418 61.0101L81.1623 56.2189C82.1475 54.9503 82.5795 53.374 82.379 51.7801C82.1783 50.1862 81.3692 48.766 80.1003 47.7807C78.8317 46.7955 77.2543 46.361 75.6615 46.5642C74.0676 46.7646 72.6473 47.5737 71.6623 48.8426L59.5249 64.4743L52.5591 56.7669C50.3352 54.3073 46.5248 54.1154 44.0654 56.3382C42.8737 57.4154 42.1729 58.892 42.0917 60.4964C42.0108 62.1006 42.5593 63.6404 43.6362 64.8323L55.4133 77.862C57.784 80.6118 62.4684 80.4432 64.6246 77.5177L72.0628 67.9384C72.6992 67.1188 72.5506 65.9381 71.731 65.3016C70.9114 64.6652 69.7309 64.8133 69.0942 65.6334L61.656 75.2127C60.8487 76.3097 59.0869 76.3736 58.2019 75.3418L46.4251 62.3121C45.5912 61.3895 45.6633 59.9607 46.5862 59.1268C47.5083 58.2939 48.9373 58.3651 49.7712 59.2879L58.2405 68.6583C58.9787 69.5142 60.446 69.4651 61.1191 68.5505L74.6316 51.1481C75.355 50.1754 76.8549 49.9867 77.7958 50.75C78.7688 51.4736 78.9572 52.9723 78.194 53.9144L74.4733 58.7051Z" fill="#111227"/>
</svg>
