<svg width="17" height="22" viewBox="0 0 17 22" fill="none" xmlns="http://www.w3.org/2000/svg">
<path d="M8.25 0C3.7015 0 0 3.72717 0 8.30958C0 14.8207 7.4745 21.5435 7.79258 21.8258C7.92367 21.9422 8.08683 22 8.25 22C8.41317 22 8.57633 21.9423 8.70742 21.8268C9.0255 21.5435 16.5 14.8207 16.5 8.30958C16.5 3.72717 12.7985 0 8.25 0ZM8.25 12.8333C5.72275 12.8333 3.66667 10.7773 3.66667 8.25C3.66667 5.72275 5.72275 3.66667 8.25 3.66667C10.7773 3.66667 12.8333 5.72275 12.8333 8.25C12.8333 10.7773 10.7773 12.8333 8.25 12.8333Z" fill="#FCB623"/>
</svg>
