<svg width="144" height="120" viewBox="0 0 144 120" fill="none" xmlns="http://www.w3.org/2000/svg">
<path d="M2.06595 113.903C1.78842 113.936 1.50705 113.905 1.24301 113.814C0.978975 113.722 0.73913 113.572 0.541516 113.374C0.343901 113.176 0.193662 112.937 0.102085 112.673C0.0105073 112.409 -0.0200267 112.127 0.0127902 111.85V94.6841C-0.0200267 94.4066 0.0105073 94.1252 0.102085 93.8612C0.193662 93.5971 0.343901 93.3573 0.541516 93.1597C0.73913 92.9621 0.978975 92.8118 1.24301 92.7202C1.50705 92.6287 1.78842 92.5981 2.06595 92.631H7.924C11.4967 92.631 14.2498 93.5465 16.1835 95.3774C18.1172 97.2084 19.0874 99.8354 19.0941 103.258C19.122 104.805 18.8725 106.345 18.3573 107.804C17.8986 109.072 17.1549 110.218 16.1835 111.153C15.178 112.086 13.983 112.791 12.6801 113.22C11.145 113.718 9.53775 113.958 7.924 113.93L2.06595 113.903ZM3.87796 110.704H7.67615C8.7763 110.725 9.87255 110.567 10.9217 110.235C11.7841 109.957 12.5697 109.481 13.216 108.845C13.8535 108.192 14.3245 107.395 14.5892 106.521C14.9089 105.459 15.0615 104.354 15.0414 103.245C15.0414 100.749 14.4285 98.8865 13.2026 97.6584C11.9767 96.4303 10.1346 95.8162 7.67615 95.8162H3.87796V110.704Z" fill="#111227"/>
<path d="M24.5302 96.1513C23.9349 96.188 23.3478 95.999 22.8856 95.6221C22.5074 95.2253 22.2964 94.6982 22.2964 94.1501C22.2964 93.6019 22.5074 93.0748 22.8856 92.678C23.3721 92.344 23.9484 92.1653 24.5385 92.1653C25.1287 92.1653 25.7049 92.344 26.1914 92.678C26.56 93.0796 26.7645 93.6049 26.7645 94.1501C26.7645 94.6952 26.56 95.2205 26.1914 95.6221C25.7247 96.0025 25.131 96.1916 24.5302 96.1513ZM24.5302 114.144C24.2729 114.161 24.0152 114.121 23.775 114.027C23.5349 113.933 23.3182 113.788 23.1402 113.602C22.7967 113.176 22.6247 112.637 22.6579 112.091V100.995C22.6203 100.444 22.7926 99.8993 23.1402 99.4705C23.3205 99.2879 23.5379 99.1462 23.7777 99.0549C24.0175 98.9636 24.2741 98.9249 24.5302 98.9413C24.7881 98.926 25.0464 98.9652 25.2883 99.0563C25.5301 99.1475 25.75 99.2886 25.9336 99.4705C26.2911 99.8946 26.47 100.441 26.4326 100.995V112.074C26.4658 112.62 26.2938 113.159 25.9503 113.585C25.7671 113.773 25.5452 113.919 25.3 114.013C25.0548 114.106 24.7921 114.145 24.5302 114.127V114.144Z" fill="#111227"/>
<path d="M37.241 119.654C36.182 119.656 35.1253 119.556 34.0859 119.352C33.1254 119.171 32.1952 118.855 31.3227 118.414C30.9933 118.265 30.7225 118.01 30.5524 117.691C30.4238 117.423 30.3817 117.123 30.4318 116.83C30.4788 116.545 30.604 116.278 30.7935 116.06C30.98 115.842 31.2272 115.684 31.5036 115.608C31.6506 115.569 31.8038 115.559 31.9544 115.58C32.1051 115.601 32.2501 115.651 32.3811 115.728C33.1729 116.139 34.0219 116.43 34.8998 116.589C35.5735 116.709 36.2555 116.775 36.9396 116.787C38.2793 116.787 39.2909 116.459 39.9741 115.805C40.6574 115.151 40.9923 114.18 40.9789 112.891V110.172H41.2502C40.9494 111.199 40.2757 112.077 39.3612 112.633C38.3926 113.251 37.2643 113.571 36.1157 113.554C34.8951 113.583 33.6916 113.263 32.6457 112.633C31.6492 112.01 30.8528 111.114 30.3514 110.051C29.7882 108.847 29.5108 107.528 29.5408 106.199C29.5262 105.175 29.6847 104.156 30.0098 103.185C30.2966 102.332 30.7523 101.546 31.3495 100.874C31.9248 100.228 32.6364 99.7176 33.4328 99.3799C34.2867 99.0198 35.2057 98.8396 36.1324 98.8507C37.2915 98.8257 38.4319 99.1463 39.4081 99.7718C40.3008 100.325 40.9535 101.192 41.2368 102.203L40.9354 102.957V100.813C40.9468 100.441 41.0638 100.08 41.2726 99.7713C41.4815 99.4629 41.7737 99.2202 42.1151 99.0713C42.4566 98.9225 42.8333 98.8738 43.2014 98.9308C43.5695 98.9878 43.9139 99.1482 44.1943 99.3933C44.3655 99.5859 44.4963 99.8107 44.5791 100.055C44.662 100.299 44.6951 100.557 44.6766 100.813V112.439C44.6766 114.835 44.0436 116.636 42.7775 117.842C41.5115 119.047 39.666 119.651 37.241 119.654ZM37.1506 110.687C37.8594 110.705 38.5578 110.515 39.1602 110.141C39.7396 109.762 40.1958 109.222 40.4732 108.587C40.8017 107.83 40.9617 107.011 40.9421 106.186C40.9421 104.799 40.5993 103.707 39.9138 102.91C39.5704 102.515 39.1424 102.203 38.6617 101.997C38.181 101.79 37.6599 101.695 37.1372 101.718C36.4284 101.7 35.7298 101.889 35.1276 102.264C34.5518 102.64 34.0962 103.174 33.8146 103.801C33.4852 104.552 33.3251 105.366 33.3457 106.186C33.3457 107.575 33.6885 108.672 34.374 109.478C34.7142 109.878 35.1412 110.195 35.6224 110.404C36.1036 110.614 36.6263 110.711 37.1506 110.687Z" fill="#111227"/>
<path d="M50.4644 96.1513C49.8693 96.1873 49.2823 95.9984 48.8199 95.6221C48.4417 95.2253 48.2307 94.6982 48.2307 94.1501C48.2307 93.6019 48.4417 93.0748 48.8199 92.678C49.3064 92.344 49.8827 92.1653 50.4728 92.1653C51.0629 92.1653 51.6392 92.344 52.1257 92.678C52.4943 93.0796 52.6988 93.6049 52.6988 94.1501C52.6988 94.6952 52.4943 95.2205 52.1257 95.6221C51.6594 96.0034 51.0653 96.1926 50.4644 96.1513ZM50.4644 114.144C50.2077 114.161 49.9504 114.121 49.7108 114.027C49.4712 113.933 49.2551 113.788 49.0778 113.602C48.7316 113.177 48.5582 112.638 48.5921 112.091V100.995C48.5541 100.443 48.7278 99.8982 49.0778 99.4705C49.2574 99.288 49.4742 99.1463 49.7135 99.055C49.9528 98.9637 50.2089 98.9249 50.4644 98.9413C50.7224 98.926 50.9807 98.9652 51.2225 99.0563C51.4643 99.1475 51.6842 99.2886 51.8678 99.4705C52.2266 99.8939 52.4057 100.441 52.3669 100.995V112.074C52.4 112.62 52.228 113.159 51.8845 113.585C51.7015 113.773 51.4797 113.919 51.2344 114.013C50.9891 114.107 50.7263 114.146 50.4644 114.127V114.144Z" fill="#111227"/>
<path d="M68.2997 114.218C66.0846 114.218 64.1867 113.771 62.6057 112.878C61.0413 112.001 59.7747 110.676 58.9683 109.073C58.0836 107.267 57.6482 105.273 57.6989 103.262C57.6762 101.726 57.9222 100.198 58.4257 98.7472C58.8723 97.4684 59.5807 96.2969 60.5057 95.3074C61.4427 94.3308 62.5875 93.5776 63.8551 93.1035C65.2774 92.57 66.7874 92.3086 68.3064 92.3331C69.4075 92.3323 70.504 92.4741 71.5687 92.7551C72.5631 93.0048 73.5109 93.4131 74.3754 93.9643C74.7561 94.1779 75.0544 94.5127 75.2228 94.9155C75.3612 95.2599 75.3927 95.6381 75.3133 96.0007C75.2393 96.3407 75.0655 96.6509 74.8142 96.8916C74.5601 97.1349 74.2276 97.2798 73.8764 97.3002C73.4385 97.3107 73.0092 97.1778 72.6539 96.9218C72.0367 96.5217 71.3577 96.2263 70.6442 96.0476C69.9235 95.867 69.1833 95.7758 68.4404 95.7763C67.1767 95.7355 65.9255 96.0376 64.8197 96.6505C63.827 97.2407 63.0445 98.1275 62.5823 99.1859C62.0446 100.476 61.7877 101.865 61.8287 103.262C61.7914 104.659 62.0481 106.047 62.5823 107.338C63.0368 108.409 63.8204 109.308 64.8197 109.904C65.9246 110.52 67.1762 110.823 68.4404 110.781C69.2042 110.781 69.9649 110.684 70.7045 110.493C71.4492 110.303 72.1615 110.002 72.818 109.602C73.1716 109.371 73.5879 109.254 74.0103 109.268C74.3414 109.29 74.6553 109.423 74.9013 109.646C75.1445 109.867 75.314 110.157 75.3869 110.477C75.4667 110.818 75.4458 111.175 75.3266 111.505C75.1861 111.88 74.932 112.202 74.5998 112.426C73.7261 113.041 72.7495 113.495 71.716 113.766C70.6034 114.073 69.4538 114.225 68.2997 114.218Z" fill="#FCB623"/>
<path d="M80.4947 114.157C80.2334 114.189 79.9684 114.16 79.7197 114.074C79.471 113.988 79.245 113.847 79.0589 113.661C78.8729 113.475 78.7314 113.249 78.6454 113C78.5593 112.751 78.5308 112.486 78.5621 112.225V100.814C78.5436 100.557 78.5768 100.299 78.6596 100.055C78.7425 99.8108 78.8733 99.5859 79.0444 99.3934C79.4289 99.0812 79.909 98.9108 80.4043 98.9108C80.8995 98.9108 81.3797 99.0812 81.7641 99.3934C81.9352 99.5859 82.0661 99.8108 82.1489 100.055C82.2318 100.299 82.2649 100.557 82.2464 100.814V102.716H81.945C82.1545 101.628 82.749 100.652 83.6197 99.9662C84.589 99.2918 85.7292 98.9051 86.9087 98.8508C87.0907 98.8257 87.276 98.8429 87.4503 98.901C87.6245 98.959 87.783 99.0565 87.9136 99.1858C88.194 99.5083 88.3496 99.9206 88.3523 100.348C88.3833 100.564 88.3695 100.784 88.3119 100.994C88.2542 101.204 88.154 101.401 88.0174 101.571C87.6967 101.906 87.2588 102.106 86.7949 102.127L86.125 102.19C84.8958 102.311 83.9713 102.686 83.345 103.322C82.7187 103.959 82.4105 104.846 82.4105 106.002V112.228C82.446 112.752 82.2726 113.269 81.9282 113.665C81.7361 113.841 81.5096 113.976 81.2629 114.061C81.0162 114.146 80.7547 114.179 80.4947 114.157Z" fill="#FCB623"/>
<path d="M95.0948 114.218C94.1086 114.236 93.1317 114.025 92.2411 113.602C91.4503 113.227 90.7731 112.649 90.2784 111.927C89.8051 111.223 89.5574 110.391 89.5683 109.542C89.519 108.606 89.8213 107.685 90.4157 106.96C90.9784 106.326 91.8939 105.868 93.1622 105.587C94.8443 105.268 96.5551 105.127 98.2666 105.165H99.7839V107.338H98.3102C97.31 107.322 96.3101 107.383 95.3192 107.519C94.7429 107.571 94.1933 107.786 93.7349 108.139C93.5747 108.298 93.45 108.489 93.3692 108.7C93.2883 108.91 93.2532 109.136 93.266 109.361C93.2563 109.668 93.3137 109.972 93.434 110.254C93.5543 110.536 93.7348 110.788 93.9627 110.992C94.5028 111.442 95.194 111.668 95.8953 111.626C96.516 111.638 97.1278 111.476 97.6604 111.157C98.1738 110.844 98.5956 110.402 98.8829 109.874C99.1924 109.299 99.3482 108.654 99.3351 108.001V104.525C99.3351 103.518 99.1118 102.793 98.6652 102.351C98.2231 101.909 97.4762 101.681 96.4312 101.681C95.7959 101.687 95.1629 101.757 94.5421 101.892C93.8083 102.054 93.0949 102.298 92.4153 102.619C92.1093 102.788 91.7526 102.842 91.4105 102.77C91.1322 102.694 90.8929 102.516 90.7406 102.271C90.5811 102.023 90.4973 101.735 90.4994 101.44C90.5023 101.127 90.5854 100.821 90.7406 100.549C90.9235 100.241 91.213 100.009 91.5545 99.8994C92.4175 99.5373 93.3154 99.2646 94.234 99.0855C95.0064 98.933 95.7913 98.8522 96.5785 98.8443C97.8056 98.8032 99.0267 99.0319 100.156 99.5142C101.062 99.9291 101.801 100.637 102.256 101.524C102.758 102.605 102.995 103.789 102.949 104.98V112.228C102.984 112.747 102.823 113.26 102.497 113.665C102.328 113.836 102.125 113.969 101.901 114.054C101.677 114.14 101.437 114.176 101.197 114.161C100.956 114.176 100.714 114.139 100.488 114.054C100.262 113.968 100.056 113.836 99.8844 113.665C99.5486 113.265 99.3806 112.75 99.4155 112.228V110.781H99.6566C99.5363 111.441 99.2559 112.06 98.8401 112.586C98.4243 113.112 97.8858 113.527 97.2719 113.796C96.5853 114.093 95.8425 114.237 95.0948 114.218Z" fill="#FCB623"/>
<path d="M109.661 114.158C109.406 114.174 109.15 114.138 108.909 114.053C108.668 113.968 108.446 113.835 108.258 113.662C108.083 113.468 107.948 113.241 107.862 112.994C107.777 112.747 107.741 112.486 107.759 112.225V101.989H106.372C105.964 102.017 105.562 101.882 105.253 101.614C105 101.323 104.861 100.95 104.861 100.564C104.861 100.178 105 99.8054 105.253 99.5141C105.566 99.2548 105.967 99.1253 106.372 99.1524H108.847L107.759 100.157V99.1289C107.759 97.0546 108.282 95.4993 109.329 94.4633C110.377 93.4272 111.884 92.8165 113.851 92.6311L114.879 92.5407C115.214 92.4847 115.558 92.5552 115.844 92.7383C116.078 92.8987 116.248 93.1356 116.326 93.4082C116.406 93.6781 116.416 93.9638 116.356 94.2388C116.299 94.5144 116.17 94.7698 115.981 94.9791C115.886 95.0812 115.772 95.1634 115.645 95.2209C115.518 95.2784 115.381 95.31 115.241 95.314L114.819 95.3441C113.67 95.4245 112.836 95.7193 112.31 96.2217C111.785 96.7241 111.527 97.4877 111.527 98.516V99.6313L111.051 99.1658H114.099C114.504 99.1387 114.905 99.2682 115.218 99.5275C115.471 99.8188 115.61 100.192 115.61 100.578C115.61 100.963 115.471 101.336 115.218 101.628C114.909 101.895 114.507 102.03 114.099 102.003H111.533V112.228C111.533 113.517 110.909 114.16 109.661 114.158Z" fill="#FCB623"/>
<path d="M123.671 114.218C122.542 114.254 121.42 114.025 120.396 113.548C119.547 113.135 118.861 112.45 118.446 111.602C117.995 110.603 117.778 109.513 117.813 108.417V101.989H116.243C115.836 102.017 115.435 101.882 115.127 101.614C114.874 101.323 114.735 100.95 114.735 100.564C114.735 100.178 114.874 99.8056 115.127 99.5143C115.439 99.2555 115.838 99.126 116.243 99.1526H117.813V96.4061C117.795 96.1478 117.83 95.8886 117.916 95.6443C118.002 95.4001 118.137 95.176 118.312 94.9859C118.503 94.8172 118.725 94.6877 118.966 94.605C119.207 94.5222 119.462 94.4878 119.716 94.5036C119.968 94.487 120.221 94.5211 120.46 94.6039C120.698 94.6867 120.918 94.8167 121.106 94.9859C121.277 95.1785 121.408 95.4033 121.491 95.6472C121.573 95.8911 121.607 96.1491 121.588 96.4061V99.1659H124.787C125.19 99.1305 125.591 99.2503 125.909 99.5009C126.162 99.7922 126.301 100.165 126.301 100.551C126.301 100.937 126.162 101.31 125.909 101.601C125.6 101.869 125.198 102.004 124.79 101.976H121.588V108.209C121.588 109.177 121.799 109.884 122.221 110.386C122.643 110.889 123.33 111.11 124.274 111.11C124.579 111.113 124.884 111.083 125.182 111.019C125.41 110.965 125.642 110.924 125.875 110.899C125.986 110.886 126.099 110.899 126.204 110.938C126.309 110.977 126.403 111.041 126.478 111.123C126.677 111.432 126.762 111.8 126.719 112.165C126.727 112.532 126.661 112.896 126.525 113.237C126.461 113.39 126.364 113.528 126.242 113.64C126.119 113.752 125.974 113.836 125.815 113.886C125.478 113.985 125.134 114.061 124.787 114.114C124.418 114.179 124.045 114.214 123.671 114.218Z" fill="#FCB623"/>
<path d="M133.907 114.218C132.984 114.212 132.064 114.121 131.157 113.946C130.245 113.785 129.367 113.469 128.562 113.012C128.276 112.843 128.043 112.597 127.892 112.302C127.765 112.05 127.712 111.768 127.741 111.488C127.766 111.226 127.871 110.978 128.042 110.778C128.216 110.576 128.451 110.438 128.712 110.386C129.016 110.337 129.328 110.396 129.593 110.553C130.314 110.906 131.074 111.174 131.857 111.351C132.544 111.495 133.245 111.565 133.947 111.558C134.912 111.558 135.631 111.392 136.104 111.059C136.324 110.919 136.505 110.724 136.629 110.495C136.754 110.265 136.817 110.007 136.814 109.746C136.825 109.543 136.789 109.341 136.707 109.155C136.626 108.968 136.502 108.804 136.345 108.674C135.929 108.379 135.448 108.187 134.942 108.115L131.928 107.542C130.679 107.301 129.728 106.843 129.074 106.169C128.744 105.822 128.487 105.411 128.318 104.962C128.15 104.514 128.073 104.036 128.093 103.557C128.072 102.656 128.354 101.774 128.893 101.051C129.47 100.316 130.237 99.7519 131.11 99.4202C132.151 99.0214 133.259 98.8269 134.373 98.8474C135.212 98.8427 136.049 98.9394 136.865 99.1355C137.65 99.3298 138.406 99.6295 139.112 100.026C139.386 100.158 139.606 100.382 139.732 100.659C139.842 100.911 139.868 101.192 139.805 101.46C139.748 101.728 139.624 101.977 139.444 102.183C139.273 102.388 139.036 102.527 138.774 102.575C138.457 102.619 138.135 102.562 137.853 102.411C137.282 102.11 136.679 101.876 136.054 101.714C135.516 101.578 134.964 101.507 134.41 101.503C133.42 101.503 132.69 101.674 132.219 102.016C131.997 102.166 131.816 102.368 131.693 102.606C131.569 102.844 131.507 103.108 131.512 103.376C131.506 103.572 131.54 103.767 131.613 103.949C131.686 104.131 131.795 104.296 131.934 104.434C132.297 104.754 132.75 104.954 133.231 105.007L136.245 105.58C137.551 105.821 138.543 106.267 139.219 106.919C139.559 107.258 139.824 107.664 139.997 108.111C140.17 108.558 140.247 109.036 140.224 109.515C140.248 110.189 140.103 110.859 139.803 111.462C139.502 112.066 139.055 112.585 138.502 112.972C137.35 113.816 135.819 114.231 133.907 114.218Z" fill="#FCB623"/>
<path fill-rule="evenodd" clip-rule="evenodd" d="M1.31238 4.77683V72.1561C1.31327 73.0696 1.67677 73.9453 2.32301 74.591C2.96926 75.2366 3.84539 75.5992 4.75888 75.5992H14.2242C15.1374 75.5992 16.0132 75.2365 16.6589 74.5907C17.3046 73.945 17.6673 73.0693 17.6673 72.1561V4.77683C17.6673 3.86334 17.3047 2.98722 16.6591 2.34097C16.0135 1.69472 15.1377 1.33121 14.2242 1.33032H4.75888C3.84481 1.33032 2.96818 1.69344 2.32184 2.33978C1.6755 2.98613 1.31238 3.86276 1.31238 4.77683Z" fill="#111227"/>
<path fill-rule="evenodd" clip-rule="evenodd" d="M39.4449 17.6889C42.0846 18.6971 44.4815 20.2517 46.4785 22.2508C48.4296 24.3251 49.9777 26.7443 51.0437 29.3849C51.7922 31.3115 52.3006 33.3228 52.5576 35.3736C53.2275 41.8412 53.4151 47.1667 54.8386 52.1205C56.3625 57.4459 59.31 62.393 65.6805 68.0032C68.5551 70.4576 71.7963 72.4466 75.2865 73.898C80.1072 75.8949 85.2816 76.8974 90.4993 76.8455C93.7847 76.8735 97.0652 76.5875 100.296 75.9914C103.041 75.3755 105.716 74.4833 108.281 73.3286C110.665 72.1595 112.926 70.7571 115.033 69.1419C116.189 68.2075 117.344 67.1792 118.48 66.0907C118.807 65.7745 119.068 65.3967 119.249 64.979C119.429 64.5614 119.525 64.1121 119.531 63.6572C119.537 63.2023 119.453 62.7507 119.283 62.3285C119.114 61.9063 118.862 61.5218 118.544 61.1972L112.846 55.366C112.246 54.7526 111.437 54.3862 110.58 54.3391C109.722 54.292 108.878 54.5675 108.214 55.1114C106.251 56.7714 104.118 58.2196 101.85 59.4321C98.9028 60.9561 95.2889 61.8102 91.1055 61.8102C88.0831 61.8445 85.0922 61.1941 82.357 59.9077C79.7607 58.7081 77.4316 56.9997 75.5075 54.8837C73.5811 52.7185 72.0953 50.1986 71.1333 47.4648C69.3279 42.7121 69.5188 39.2857 69.1236 34.8176C68.8389 30.728 68.4537 27.2112 66.9365 23.5972C65.4572 20.1138 63.421 16.8943 60.9076 14.0649C60.8667 14.0156 60.8231 13.9687 60.777 13.9242C60.1339 13.2778 59.4875 12.5443 58.7674 11.9146C55.341 8.58536 51.1576 6.01974 46.3077 4.1173C41.4578 2.21486 36.1323 1.35742 30.3346 1.35742H24.6407C23.7272 1.35831 22.8514 1.72181 22.2058 2.36806C21.5602 3.01431 21.1975 3.89043 21.1975 4.80391V12.6548C21.1975 13.568 21.5603 14.4438 22.206 15.0895C22.8517 15.7352 23.7275 16.098 24.6407 16.098H30.3346C33.6605 16.098 36.6984 16.5736 39.4616 17.7157L39.4449 17.6889Z" fill="#FCB623"/>
<path fill-rule="evenodd" clip-rule="evenodd" d="M63.1249 11.4123C65.7414 14.4425 68.0368 17.7358 69.9743 21.2393C70.2376 21.7227 70.6126 22.1361 71.0682 22.445C71.5238 22.7539 72.0467 22.9493 72.5932 23.0148C73.1397 23.0804 73.694 23.0143 74.2097 22.8219C74.7254 22.6296 75.1876 22.3166 75.5577 21.9092L75.5979 21.8656C77.4964 19.7429 79.8319 18.0564 82.444 16.922C85.1592 15.685 88.1155 15.0672 91.0988 15.1133C94.8066 15.1133 98.2296 15.7832 101.177 17.3004C103.432 18.4307 105.564 19.7899 107.541 21.3565C108.237 21.9005 109.116 22.1562 109.995 22.0708C110.875 21.9854 111.688 21.5654 112.267 20.8977L118.296 14.0047C118.595 13.6619 118.823 13.2634 118.967 12.832C119.111 12.4007 119.169 11.9451 119.136 11.4914C119.103 11.0378 118.981 10.5951 118.777 10.1889C118.572 9.78269 118.289 9.42099 117.944 9.12465C117.001 8.3021 116.008 7.53919 114.97 6.84038C112.953 5.39866 110.78 4.18861 108.492 3.2331C105.987 2.16013 103.372 1.36277 100.695 0.85506C97.5597 0.267141 94.3755 -0.01887 91.1859 0.000964891C85.3848 0.000964891 80.1564 1.04597 75.4941 3.0422C70.888 4.94166 66.7154 7.7561 63.2287 11.3151L63.1249 11.4123Z" fill="#111227"/>
<path fill-rule="evenodd" clip-rule="evenodd" d="M39.4449 59.2446C36.5263 60.3343 33.4332 60.8814 30.3179 60.859H24.6239C23.7104 60.8599 22.8347 61.2234 22.1891 61.8697C21.5434 62.5159 21.1808 63.392 21.1808 64.3055V72.1564C21.1808 73.0696 21.5435 73.9454 22.1893 74.5911C22.835 75.2368 23.7108 75.5996 24.6239 75.5996H30.3179C36.1234 75.5996 41.4478 74.6484 46.291 72.7459C49.5768 71.4535 52.6747 69.7266 55.5018 67.6113C56.2158 67.0778 56.6946 66.2877 56.8371 65.4078C56.9796 64.5279 56.7746 63.6271 56.2654 62.8954C54.6823 60.6008 53.3282 58.1564 52.2227 55.5972C52.0003 55.079 51.6534 54.6237 51.213 54.2715C50.7726 53.9193 50.2521 53.6812 49.6976 53.5782C49.1432 53.4752 48.5719 53.5105 48.0344 53.681C47.4968 53.8514 47.0096 54.1518 46.6159 54.5555L46.492 54.6794C44.52 56.7101 42.116 58.2705 39.4583 59.2446H39.4449Z" fill="#FCB623"/>
<path fill-rule="evenodd" clip-rule="evenodd" d="M64.1431 66.5727C66.6256 63.4358 68.7751 60.0492 70.5572 56.4677C70.7986 55.9726 71.1552 55.5427 71.597 55.2138C72.0389 54.8849 72.5531 54.6667 73.0966 54.5775C73.6401 54.4883 74.1971 54.5306 74.7209 54.701C75.2447 54.8714 75.72 55.1648 76.1071 55.5567L76.1506 55.5969C76.6454 56.0995 77.1652 56.5768 77.7081 57.027C79.3466 58.3981 81.2018 59.487 83.1977 60.2491C85.9579 61.3686 88.9324 61.8606 91.906 61.6894C95.6138 61.5353 99.0034 60.7248 101.887 59.0802C104.096 57.8574 106.172 56.4094 108.084 54.7595C108.757 54.1873 109.625 53.8953 110.507 53.9439C111.389 53.9926 112.22 54.378 112.826 55.0208L119.14 61.6525C119.453 61.9828 119.697 62.3717 119.86 62.7968C120.022 63.222 120.098 63.6751 120.084 64.1299C120.071 64.5847 119.967 65.0324 119.78 65.447C119.592 65.8617 119.325 66.2352 118.992 66.5459C118.083 67.4054 117.122 68.2085 116.115 68.9508C114.165 70.4775 112.05 71.7797 109.808 72.8327C107.347 74.013 104.764 74.9205 102.105 75.539C98.9969 76.2576 95.8274 76.6782 92.6396 76.795C86.8418 77.0362 81.5866 76.2122 76.8339 74.4136C72.1568 72.7131 67.8736 70.081 64.2436 66.6766L64.1431 66.5727Z" fill="#111227"/>
<path d="M123.501 58.3033C122.652 58.3041 121.811 58.1374 121.026 57.8127C120.242 57.4879 119.529 57.0116 118.929 56.4109L117.659 55.1449C117.058 54.5448 116.582 53.8321 116.256 53.0477C115.931 52.2632 115.764 51.4223 115.764 50.573C115.764 49.7237 115.931 48.8828 116.256 48.0983C116.582 47.3138 117.058 46.6012 117.659 46.0011L118.473 45.1906L124.167 39.4966C124.61 39.0517 124.858 38.4496 124.858 37.822C124.858 37.1943 124.61 36.5922 124.167 36.1473L117.264 29.2409L117.08 28.9964C116.232 27.8657 115.773 26.491 115.77 25.0776C115.761 24.2204 115.923 23.3701 116.247 22.5764C116.571 21.7827 117.05 21.0617 117.656 20.4555L118.925 19.1861C120.141 17.972 121.789 17.29 123.507 17.29C125.226 17.29 126.874 17.972 128.089 19.1861L142.103 33.1998C143.318 34.4173 144 36.0669 144 37.7868C144 39.5066 143.318 41.1562 142.103 42.3737L128.22 56.2569C126.98 57.5374 125.283 58.2735 123.501 58.3033Z" fill="#FCB623"/>
<path d="M111.44 46.0648C111.097 46.066 110.758 45.9991 110.442 45.868C110.126 45.7369 109.838 45.5442 109.597 45.3012L109.085 44.7921C108.843 44.5504 108.651 44.2632 108.519 43.9471C108.388 43.631 108.321 43.2922 108.321 42.9499C108.321 42.6077 108.388 42.2689 108.519 41.9528C108.651 41.6367 108.843 41.3495 109.085 41.1078L109.42 40.7729L111.721 38.4718C111.81 38.3826 111.881 38.2766 111.929 38.1599C111.978 38.0432 112.003 37.9182 112.003 37.7919C112.003 37.6656 111.978 37.5406 111.929 37.4239C111.881 37.3073 111.81 37.2013 111.721 37.112L108.938 34.3287L108.861 34.2315C108.52 33.7745 108.336 33.2203 108.335 32.6506C108.333 32.3073 108.4 31.967 108.531 31.6497C108.662 31.3323 108.855 31.0441 109.098 30.8018L109.611 30.2893C110.1 29.8025 110.763 29.5293 111.453 29.5293C112.143 29.5293 112.806 29.8025 113.295 30.2893L118.949 35.9397C119.438 36.4312 119.713 37.0966 119.713 37.7902C119.713 38.4839 119.438 39.1493 118.949 39.6408L113.345 45.2409C112.844 45.7568 112.159 46.053 111.44 46.0648Z" fill="#FCB623"/>
</svg>
