<svg width="1920" height="4867" viewBox="0 0 1920 4867" fill="none" xmlns="http://www.w3.org/2000/svg">
<path d="M1953.18 0L1499.92 453.255C1449.16 504.024 1449.16 586.335 1499.92 637.103L2171.68 1308.85L2716.85 763.675L1953.18 0Z" fill="#FCB623"/>
<path d="M-27.3247 862L425.931 1315.26C476.699 1366.02 476.699 1448.34 425.931 1499.1L-245.821 2170.85L-791 1625.68L-27.3247 862Z" fill="#111227"/>
<path d="M1953.18 1926L1499.92 2379.26C1449.16 2430.02 1449.16 2512.34 1499.92 2563.1L2171.68 3234.85L2716.85 2689.68L1953.18 1926Z" fill="#FCB623"/>
<path d="M1953.18 3786L1499.92 4239.26C1449.16 4290.02 1449.16 4372.34 1499.92 4423.1L2171.68 5094.85L2716.85 4549.68L1953.18 3786Z" fill="#111227"/>
</svg>
