<svg width="63" height="52" viewBox="0 0 63 52" fill="none" xmlns="http://www.w3.org/2000/svg">
<path fill-rule="evenodd" clip-rule="evenodd" d="M32.0626 0.0136568C27.0353 -0.153762 21.9562 1.21781 17.571 4.14489C12.6459 7.43588 9.20403 12.2957 7.61867 17.7286C7.18086 17.6751 6.6566 17.6987 6.03408 17.8748C3.70987 18.5342 1.9618 20.4387 1.1758 22.1161C0.15635 24.3019 -0.273594 27.1929 0.17993 30.1773C0.63031 33.1523 1.88713 35.6047 3.45914 37.1272C5.03586 38.6504 6.81616 39.1456 8.58466 38.7738C11.2178 38.2118 12.5233 37.7913 12.1547 35.3382L10.3697 23.4468C10.7297 17.011 14.0615 10.9525 19.6343 7.22681C27.0935 2.24433 36.8729 2.56345 43.9878 8.02539C48.9373 11.8202 51.8109 17.5062 52.1426 23.4751L50.8944 31.7933C48.1104 39.4121 41.2085 44.6893 33.2219 45.4384H27.9038C26.5315 45.4384 25.4264 46.5435 25.4264 47.9143V49.2206C25.4264 50.5922 26.5315 51.6973 27.9038 51.6973H34.6092C35.9808 51.6973 37.0812 50.5922 37.0812 49.2206V48.5376C43.1036 47.0677 48.3604 43.3664 51.7834 38.2048L53.9315 38.7746C55.6796 39.2281 57.4811 38.6504 59.0571 37.1279C60.6291 35.6047 61.8851 33.1531 62.3363 30.1781C62.7914 27.1936 62.3489 24.3074 61.3412 22.1168C60.3296 19.9263 58.8228 18.535 57.0834 18.0359C56.3548 17.8261 55.5641 17.749 54.8858 17.7286C53.4521 12.8161 50.5006 8.34843 46.2468 5.08652C42.0645 1.87727 37.0899 0.178717 32.0626 0.0136568Z" fill="#FCB623"/>
<path fill-rule="evenodd" clip-rule="evenodd" d="M39.9108 21.4071C41.6833 21.4071 43.1201 22.8439 43.124 24.6211C43.1201 26.3935 41.6833 27.8342 39.9108 27.8342C38.1337 27.8342 36.6929 26.3935 36.6929 24.6211C36.6929 22.8447 38.1345 21.4071 39.9108 21.4071ZM31.2569 21.4071C33.0333 21.4071 34.4701 22.8439 34.4701 24.6211C34.4701 26.3935 33.0333 27.8342 31.2569 27.8342C29.479 27.8342 28.0422 26.3935 28.0422 24.6211C28.0422 22.8447 29.479 21.4071 31.2569 21.4071ZM22.6062 21.4071C24.3786 21.4071 25.8194 22.8439 25.8194 24.6211C25.8194 26.3935 24.3786 27.8342 22.6062 27.8342C20.8298 27.8342 19.3922 26.3935 19.3922 24.6211C19.3922 22.8447 20.8298 21.4071 22.6062 21.4071ZM31.2569 7.6033C21.8328 7.6033 14.2384 14.9477 14.2384 24.6211C14.2384 29.2671 15.9951 33.3732 18.857 36.386L17.8414 40.9385C17.5066 42.4366 18.5457 43.4443 19.8921 42.6944L24.3378 40.2146C26.4505 41.1318 28.7873 41.6388 31.2569 41.6388C40.6843 41.6388 48.2739 34.2991 48.2739 24.6211C48.2739 14.9477 40.6843 7.6033 31.2569 7.6033Z" fill="#FCB623"/>
</svg>
