<svg width="22" height="22" viewBox="0 0 22 22" fill="none" xmlns="http://www.w3.org/2000/svg">
<path d="M21.376 16.1457L18.3058 13.0756C17.2093 11.9791 15.3453 12.4177 14.9067 13.8431C14.5778 14.83 13.4813 15.3782 12.4945 15.1589C10.3015 14.6107 7.34098 11.7598 6.79274 9.45718C6.46379 8.4703 7.12169 7.37382 8.10852 7.04492C9.53395 6.60632 9.97255 4.7423 8.87606 3.64581L5.8059 0.575655C4.92872 -0.191885 3.61293 -0.191885 2.84539 0.575655L0.762073 2.65898C-1.32125 4.85195 0.98137 10.6633 6.13485 15.8168C11.2883 20.9703 17.0997 23.3826 19.2927 21.1896L21.376 19.1063C22.1436 18.2291 22.1436 16.9133 21.376 16.1457Z" fill="#FCB623"/>
</svg>
