<svg width="49" height="54" viewBox="0 0 49 54" fill="none" xmlns="http://www.w3.org/2000/svg">
<path fill-rule="evenodd" clip-rule="evenodd" d="M42.2659 13.845C42.965 12.3038 44.5241 11.4937 45.7199 12.0384C46.7411 12.4903 47.1847 13.7791 46.8624 15.1078C46.8753 15.1078 46.9028 15.1209 46.9296 15.1342L48.5557 15.8649C48.932 16.0377 49.1067 16.4633 48.932 16.835L45.411 24.4889C45.236 24.8607 44.8058 25.0333 44.4299 24.8607C44.0536 24.6877 43.8791 24.249 44.0536 23.8909L47.2654 16.9012L46.311 16.4763L34.2428 42.7458L28.7864 48.9111L29.8886 40.7925L42.2659 13.845ZM11.6382 8.99572H26.0585C26.5421 8.99572 26.932 8.61037 26.932 8.13192V4.3844C26.932 3.90639 26.5421 3.52148 26.0585 3.52148H24.6607V1.85988C24.6607 0.836791 23.8144 0 22.7796 0H14.9174C13.8827 0 13.0357 0.836791 13.0357 1.85988V3.52148H11.6381C11.1542 3.52148 10.7647 3.90639 10.7647 4.3844V8.13192C10.7648 8.61037 11.1543 8.99572 11.6382 8.99572ZM1.39775 4.79675C0.631589 4.80982 0 5.42089 0 6.17884V52.631C0 53.3887 0.631589 54 1.39775 54H36.3129C37.0787 54 37.6967 53.3887 37.6967 52.631V38.4806L35.399 43.4896L26.8248 53.163L28.5583 40.4071L37.6967 20.516V6.17884C37.6967 5.42089 37.0787 4.80982 36.3129 4.79675H28.303V8.13192C28.303 9.35406 27.2948 10.3371 26.0585 10.3371H11.6382C10.4019 10.3371 9.3941 9.35406 9.3941 8.13192V4.79675H1.39775ZM8.2112 49.1368C7.83533 49.1368 7.52598 48.8312 7.52598 48.4593C7.52598 48.0871 7.83533 47.7816 8.2112 47.7816H17.0945C17.4708 47.7816 17.7802 48.0871 17.7802 48.4593C17.7802 48.8312 17.4708 49.1368 17.0945 49.1368H8.2112ZM27.241 13.8983C26.7707 13.8983 26.3544 14.0846 26.0451 14.3898C25.7359 14.6959 25.5478 15.1078 25.5478 15.5728C25.5478 16.0377 25.7359 16.4498 26.0451 16.755C26.3544 17.0609 26.7845 17.247 27.241 17.247C27.7113 17.247 28.1413 17.0609 28.4507 16.755C28.4507 16.7418 28.4642 16.7418 28.4777 16.7289C28.7595 16.4365 28.9347 16.0247 28.9347 15.5728C28.9347 15.1078 28.7462 14.6959 28.4507 14.3898C28.4372 14.3768 28.4237 14.3633 28.4103 14.3633C28.1147 14.0713 27.6978 13.8983 27.241 13.8983ZM25.0773 13.4333C25.6417 12.8886 26.4079 12.5433 27.241 12.5433C28.0745 12.5433 28.8137 12.8755 29.3645 13.3936C29.3781 13.4067 29.3914 13.42 29.4048 13.4333C29.9691 13.9786 30.3049 14.7356 30.3049 15.5729C30.3049 16.3833 29.9829 17.1275 29.4451 17.6723C29.4318 17.6854 29.4183 17.6989 29.4048 17.7121C28.854 18.2568 28.0877 18.6023 27.2409 18.6023C26.3947 18.6023 25.6416 18.2568 25.0772 17.7121C24.5263 17.1673 24.1902 16.4098 24.1902 15.5728C24.1903 14.7355 24.5265 13.9786 25.0773 13.4333ZM21.6236 19.6785C19.0701 21.6985 16.893 24.1298 15.1859 26.8269C13.2243 29.9233 11.8533 33.3917 11.1946 37.0452C11.141 37.4174 10.7785 37.6564 10.4154 37.6031C10.0389 37.5369 9.79739 37.1912 9.85091 36.8194C10.5497 32.9928 11.9742 29.3519 14.0304 26.1101C15.8448 23.2527 18.1426 20.7016 20.8577 18.5624L19.6077 18.2302C19.2451 18.1239 19.03 17.7651 19.1371 17.393C19.2309 17.0344 19.6077 16.8216 19.9705 16.9285L22.5506 17.6187C22.8734 17.7121 23.0884 18.018 23.0482 18.3499L22.9273 20.941C22.9138 21.3127 22.5912 21.592 22.215 21.5789C21.8388 21.5656 21.5565 21.2463 21.5698 20.8744L21.6236 19.6785ZM8.00978 15.6262C7.74117 15.36 7.74117 14.9352 8.00978 14.6692C8.27882 14.4032 8.70833 14.4032 8.97715 14.6692L10.6303 16.3034L12.2835 14.6692C12.5522 14.4032 12.9822 14.4032 13.2512 14.6692C13.5063 14.9352 13.5063 15.36 13.2512 15.6262L11.5978 17.2602L13.2512 18.8945C13.5063 19.147 13.5063 19.5855 13.2512 19.8378C12.9822 20.104 12.5522 20.104 12.2835 19.8378L10.6303 18.2034L8.97715 19.8378C8.70822 20.104 8.27871 20.104 8.00978 19.8378C7.74117 19.5855 7.74117 19.147 8.00978 18.8945L9.66259 17.2602L8.00978 15.6262ZM19.8634 31.8102C19.5943 31.5442 19.5943 31.119 19.8634 30.8535C20.1183 30.5877 20.5619 30.5877 20.8175 30.8535L22.4702 32.4876L24.1233 30.8535C24.3919 30.5877 24.8222 30.5877 25.0908 30.8535C25.3598 31.119 25.3598 31.5442 25.0908 31.8102L23.4378 33.4444L25.0908 35.0788C25.3598 35.3448 25.3598 35.7696 25.0908 36.0354C24.8222 36.3014 24.3919 36.3014 24.1233 36.0354L22.4702 34.4012L20.8175 36.0354C20.5618 36.3014 20.1183 36.3014 19.8634 36.0354C19.5943 35.7696 19.5943 35.3447 19.8634 35.0788L21.5161 33.4444L19.8634 31.8102ZM8.2112 41.6425C7.83533 41.6425 7.52598 41.3504 7.52598 40.9783C7.52598 40.6063 7.83533 40.3008 8.2112 40.3008H17.0945C17.4708 40.3008 17.7802 40.6063 17.7802 40.9783C17.7802 41.3504 17.4708 41.6425 17.0945 41.6425H8.2112ZM8.2112 45.3898C7.83533 45.3898 7.52598 45.0973 7.52598 44.7124C7.52598 44.3403 7.83533 44.0475 8.2112 44.0475H9.93153C10.3079 44.0475 10.6169 44.3403 10.6169 44.7124C10.6169 45.0973 10.3079 45.3898 9.93153 45.3898H8.2112ZM12.6193 45.3898C12.2435 45.3898 11.9339 45.0973 11.9339 44.7124C11.9339 44.3403 12.2435 44.0475 12.6193 44.0475H17.0945C17.4708 44.0475 17.7802 44.3403 17.7802 44.7124C17.7802 45.0973 17.4708 45.3898 17.0945 45.3898H12.6193ZM31.3133 41.4303L30.9234 44.2337L32.8184 42.1074L31.3133 41.4303ZM41.1505 24.1032L45.3439 14.9752L45.3975 14.7484C45.4917 14.3898 45.5318 13.5796 45.1017 13.3802C45.0615 13.3669 45.0346 13.3534 44.9944 13.3534C44.4299 13.274 43.8249 14.0181 43.6233 14.4565L39.538 23.3727L41.1505 24.1032Z" fill="#FCB623"/>
</svg>
