<svg width="47" height="62" viewBox="0 0 47 62" fill="none" xmlns="http://www.w3.org/2000/svg">
<path opacity="0.25" d="M1.13085e-05 3.10186L8.86934e-06 58.9035C0.00180175 59.4684 0.159574 60.0222 0.456338 60.5052C0.753106 60.9882 1.17762 61.3821 1.68421 61.6445C2.19079 61.907 2.76026 62.028 3.3313 61.9946C3.90234 61.9611 4.45334 61.7745 4.92499 61.4548L45.7311 33.554C47.423 32.3977 47.423 29.6138 45.7311 28.4544L4.92499 0.553592C4.45433 0.23064 3.90305 0.0412537 3.33106 0.00600893C2.75906 -0.0292359 2.18823 0.0910093 1.68057 0.35368C1.17291 0.616351 0.747848 1.0114 0.451565 1.49591C0.155281 1.98042 -0.00089275 2.53585 1.13085e-05 3.10186Z" fill="#111227"/>
</svg>
